DBRep_DrawableShape

CASCADE Topology V1, (c) Matra-Datavision
Locations 2
1
              1               0               0               0 
              0               1               0               0 
              0               0               1               1 
2  1 -1 0
Curve2ds 16
1 3.9269908169872414 0 0 -1 
1 3.9269908169872423 0 0 -1 
1 5.497787143782138 0 0 -1 
1 5.497787143782138 0 0 -1 
1 0 0 1 0 
1 0 -1 1 0 
1 2.3561944901923448 0 0 -1 
1 2.3561944901923439 0 0 -1 
1 0 0 1 0 
1 0 -1 1 0 
1 0.78539816339744828 0 0 -1 
1 7.0685834705770345 0 0 -1 
1 0 0 1 0 
1 0 -1 1 0 
1 0 0 1 0 
1 0 -1 1 0 
Curves 20
1 -0.45000000000000001 -0.45000000000000001 0 0 0 1 
1 0.45000000000000001 -0.45000000000000001 0 0 0 1 
1 -0.45000000000000001 -0.45000000000000001 0 1 0 0 
1 0.45000000000000001 0.45000000000000001 0 0 0 1 
1 0.45000000000000001 -0.45000000000000001 0 0 1 0 
1 -0.45000000000000001 0.45000000000000001 0 0 0 1 
1 0.45000000000000001 0.45000000000000001 0 -1 0 0 
1 -0.45000000000000001 0.45000000000000001 0 0 -1 0 
1 -0.88622692545275794 0.88622692545275794 0 0 0 1 
1 0.88622692545275794 0.88622692545275794 0 0 0 1 
2 0 0 0 0 -0 -1 1 0 0 0 -1 0 1.2533141373155001
1 0.45000000000000001 0.45000000000000001 0 0.70710678118654746 0.70710678118654746 0 
1 -0.88622692545275794 0.88622692545275794 0 0.70710678118654746 -0.70710678118654746 0 
1 -0.88622692545275794 -0.88622692545275794 0 0 0 1 
2 0 0 0 -0 -0 -1 1 0 -0 0 -1 0 1.2533141373155001
1 -0.45000000000000001 -0.45000000000000001 0 -0.70710678118654746 -0.70710678118654746 0 
1 0.88622692545275794 -0.88622692545275794 0 0 0 1 
1 0.45000000000000001 -0.45000000000000001 0 0.70710678118654746 -0.70710678118654746 0 
2 0 0 0 -0 -0 -1 1 0 -0 0 -1 0 1.2533141373155001
2 0 0 0 -0 -0 -1 1 0 -0 0 -1 0 1.2533141373155001
Polygon3D 0
PolygonOnTriangulations 0
Surfaces 18
1 -0.45000000000000001 -0.45000000000000001 0 0 1 0 1 0 0 0 0 -1 
1 0.45000000000000001 -0.45000000000000001 0 -1 0 0 0 1 0 0 0 -1 
1 0.45000000000000001 0.45000000000000001 0 0 -1 0 -1 0 0 -0 -0 -1 
1 -0.45000000000000001 0.45000000000000001 0 1 0 -0 0 -1 0 0 -0 -1 
1 0 0 0 0 0 1 1 0 -0 -0 1 0 
2 0 0 0 0 0 -1 1 0 0 0 -1 0 1.2533141373155001
2 0 0 0 0 -0 -1 1 0 -0 0 -1 0 1.2533141373155001
2 0 0 0 0 -0 -1 1 0 -0 0 -1 0 1.2533141373155001
1 0.45000000000000001 0.45000000000000001 0 -0.70710678118654757 0.70710678118654757 0 0.70710678118654757 0.70710678118654757 0 0 0 -1 
1 -0.88622692545275794 0.88622692545275794 0 0.70710678118654757 0.70710678118654757 -0 0.70710678118654757 -0.70710678118654757 0 0 -0 -1 
1 -1.2244730310081852e-16 0.82720254389638803 0 -0 -0 -1 -1 0 0 0 1 -0 
2 0 0 0 0 -0 -1 1 0 -0 0 -1 0 1.2533141373155001
1 -0.45000000000000001 -0.45000000000000001 0 0.70710678118654757 -0.70710678118654757 0 -0.70710678118654757 -0.70710678118654757 0 0 -0 -1 
1 -0.82720254389638792 1.4965781490100035e-16 0 -0 -0 -1 -1 0 0 0 1 -0 
1 0.45000000000000001 -0.45000000000000001 0 0.70710678118654757 0.70710678118654757 -0 0.70710678118654757 -0.70710678118654757 0 0 -0 -1 
1 2.4489460620163709e-16 -0.8272025438963877 0 -0 -0 -1 -1 0 0 0 1 -0 
1 0.82720254389638781 1.6326307080109131e-16 0 -0 -0 -1 -1 0 0 0 1 -0 
1 0 0 0 0 0 1 1 0 -0 -0 1 0 
Triangulations 0

TShapes 76
Ve
1e-07
-0.45 -0.45 0
0 0

0101101
*
Ed
 1e-07 1 1 0
1  1 0 0 1
0

0101000
+76 0 -76 1 *
Ve
1e-07
0.45 -0.45 0
0 0

0101101
*
Ed
 1e-07 1 1 0
1  2 0 0 1
0

0101000
+74 0 -74 1 *
Ed
 1e-07 1 1 0
1  3 0 0 0.9
0

0101000
+76 0 -74 0 *
Wi

0101100
+75 0 -73 0 -72 0 +72 1 *
Fa
0  1e-07 1 0

0101000
+71 0 *
Ve
1e-07
0.45 0.45 0
0 0

0101101
*
Ed
 1e-07 1 1 0
1  4 0 0 1
0

0101000
+69 0 -69 1 *
Ed
 1e-07 1 1 0
1  5 0 0 0.9
0

0101000
+74 0 -69 0 *
Wi

0101100
+73 0 -68 0 -67 0 +67 1 *
Fa
0  1e-07 2 0

0101000
+66 0 *
Ve
1e-07
-0.45 0.45 0
0 0

0101101
*
Ed
 1e-07 1 1 0
1  6 0 0 1
0

0101000
+64 0 -64 1 *
Ed
 1e-07 1 1 0
1  7 0 0 0.9
0

0101000
+69 0 -64 0 *
Wi

0101100
+68 0 -63 0 -62 0 +62 1 *
Fa
0  1e-07 3 0

0101000
+61 0 *
Ed
 1e-07 1 1 0
1  8 0 0 0.9
0

0101000
+64 0 -76 0 *
Wi

0101100
+63 0 -75 0 -59 0 +59 1 *
Fa
0  1e-07 4 0

0101000
+58 0 *
Wi

0101100
+72 0 +67 0 +62 0 +59 0 *
Fa
0  1e-07 5 0

0101000
+56 0 *
Sh

0101100
+70 0 +65 0 +60 0 +57 0 +55 0 -55 1 *
So

0100000
-54 0 *
Ve
1e-07
-0.886226925452758 0.886226925452758 0
0 0

0101101
*
Ed
 1e-07 1 1 0
1  9 0 0 1
2  1 6 0 0 1
2  2 7 0 0 1
0

0101000
+52 0 -52 1 *
Ve
1e-07
0.886226925452758 0.886226925452758 0
0 0

0101101
*
Ed
 1e-07 1 1 0
1  10 0 0 1
2  3 6 0 0 1
2  4 8 0 0 1
0

0101000
+50 0 -50 1 *
Ed
 1e-07 1 1 0
1  11 0 3.92699081698724 5.49778714378214
2  5 6 0 3.92699081698724 5.49778714378214
2  6 6 2 3.92699081698724 5.49778714378214
0

0101000
+52 0 -50 0 *
Wi

0101100
+51 0 -49 0 -48 0 +48 1 *
Fa
0  1e-07 6 0

0101000
+47 0 *
Ed
 1e-07 1 1 0
1  12 0 0 0.616918034247607
0

0101000
+69 0 -50 0 *
Wi

0101100
+68 0 -49 0 -45 0 +45 1 *
Fa
0  1e-07 9 0

0101000
+44 0 *
Ed
 1e-07 1 1 0
1  13 0 0 0.616918034247607
0

0101000
+52 0 -64 0 *
Wi

0101100
+51 0 -63 0 -42 0 +42 1 *
Fa
0  1e-07 10 0

0101000
+41 0 *
Wi

0101100
+48 0 -45 0 +62 0 -42 0 *
Fa
0  1e-07 11 0

0111000
+39 0 *
Sh

0101100
+46 0 -43 0 +60 0 -40 0 +38 0 -38 1 *
So

0100000
+37 0 *
Ve
1e-07
-0.886226925452758 -0.886226925452758 0
0 0

0101101
*
Ed
 1e-07 1 1 0
1  14 0 0 1
2  7 7 0 0 1
2  8 12 0 0 1
0

0101000
+35 0 -35 1 *
Ed
 1e-07 1 1 0
1  15 0 2.35619449019234 3.92699081698724
2  9 7 0 2.35619449019234 3.92699081698724
2  10 7 2 2.35619449019234 3.92699081698724
0

0101000
+35 0 -52 0 *
Wi

0101100
+34 0 -51 0 -33 0 +33 1 *
Fa
0  1e-07 7 0

0101000
+32 0 *
Ed
 1e-07 1 1 0
1  16 0 0 0.616918034247607
0

0101000
+76 0 -35 0 *
Wi

0101100
+75 0 -34 0 -30 0 +30 1 *
Fa
0  1e-07 13 0

0101000
+29 0 *
Wi

0101100
+33 0 +42 0 +59 0 +30 0 *
Fa
0  1e-07 14 0

0111000
+27 0 *
Sh

0101100
+31 0 +40 0 +57 0 +28 0 +26 0 -26 1 *
So

0100000
+25 0 *
Ve
1e-07
0.886226925452758 -0.886226925452758 0
0 0

0101101
*
Ed
 1e-07 1 1 0
1  17 0 0 1
2  11 12 0 0 1
2  12 8 0 0 1
0

0101000
+23 0 -23 1 *
Ed
 1e-07 1 1 0
1  18 0 0 0.616918034247607
0

0101000
+74 0 -23 0 *
Wi

0101100
+73 0 -22 0 -21 0 +21 1 *
Fa
0  1e-07 15 0

0101000
+20 0 *
Ed
 1e-07 1 1 0
1  19 0 0.785398163397448 2.35619449019234
2  13 12 0 0.785398163397448 2.35619449019234
2  14 12 2 0.785398163397448 2.35619449019234
0

0101000
+23 0 -35 0 *
Wi

0101100
+22 0 -34 0 -18 0 +18 1 *
Fa
0  1e-07 12 0

0101000
+17 0 *
Wi

0101100
+72 0 +21 0 +18 0 -30 0 *
Fa
0  1e-07 16 0

0111000
+15 0 *
Sh

0101100
+70 0 +19 0 +16 0 -28 0 +14 0 -14 1 *
So

0100000
+13 0 *
Ed
 1e-07 1 1 0
1  20 0 5.49778714378214 7.06858347057703
2  15 8 0 5.49778714378214 7.06858347057703
2  16 8 2 5.49778714378214 7.06858347057703
0

0101000
+50 0 -23 0 *
Wi

0101100
+49 0 -22 0 -11 0 +11 1 *
Fa
0  1e-07 8 0

0101000
+10 0 *
Wi

0101100
+45 0 +11 0 -21 0 +67 0 *
Fa
0  1e-07 17 0

0111000
+8 0 *
Sh

0101100
+43 0 +9 0 -19 0 +65 0 +7 0 -7 1 *
So

0100000
+6 0 *
Wi

0101100
+59 0 +72 0 +67 0 +62 0 *
Fa
0  1e-07 18 0

0111000
+4 0 *
Ve
1e-07
0 0 0
0 0

0101101
*
Co

1100000
+53 0 +36 0 +24 0 +12 0 +5 0 +3 0 +2 0 *

+1 0 