DBRep_DrawableShape

CASCADE Topology V1, (c) Matra-Datavision
Locations 2
1
              1               0               0               0 
              0               1               0               0 
              0               0               1             0.3 
2  1 -1 0
Curve2ds 4
1 0 0 0 -1 
1 6.2831853071795862 0 0 -1 
1 0 0 1 0 
1 0 -0.29999999999999999 1 0 
Curves 10
1 -0.69999999999999996 0.69999999999999996 0 0 0 1 
1 0.69999999999999996 0.69999999999999996 0 0 0 1 
1 -0.69999999999999996 0.69999999999999996 0 1 0 0 
1 0.69999999999999996 -0.69999999999999996 0 0 0 1 
1 0.69999999999999996 0.69999999999999996 0 0 -1 0 
1 -0.69999999999999996 -0.69999999999999996 0 0 0 1 
1 0.69999999999999996 -0.69999999999999996 0 -1 0 0 
1 -0.69999999999999996 -0.69999999999999996 0 0 1 0 
1 0.5 0 0 0 0 1 
2 0 0 0 0 0 1 1 0 -0 -0 1 0 0.5
Polygon3D 0
PolygonOnTriangulations 0
Surfaces 6
1 -0.69999999999999996 0.69999999999999996 0 0 1 0 1 0 0 0 0 -1 
1 0.69999999999999996 0.69999999999999996 0 1 0 -0 0 -1 0 0 -0 -1 
1 0.69999999999999996 -0.69999999999999996 0 0 -1 0 -1 0 0 -0 -0 -1 
1 -0.69999999999999996 -0.69999999999999996 0 -1 0 0 0 1 0 0 0 -1 
2 0 0 0 -0 -0 -1 1 0 -0 -0 1 0 0.5
1 -1.982541115402065e-17 -1.982541115402065e-17 0 -0 -0 -1 -1 0 0 0 1 -0 
Triangulations 0

TShapes 31
Ve
1e-07
-0.7 0.7 0
0 0

0101101
*
Ed
 1e-07 1 1 0
1  1 0 0 0.3
0

0101000
+31 0 -31 1 *
Ve
1e-07
0.7 0.7 0
0 0

0101101
*
Ed
 1e-07 1 1 0
1  2 0 0 0.3
0

0101000
+29 0 -29 1 *
Ed
 1e-07 1 1 0
1  3 0 0 1.4
0

0101000
+31 0 -29 0 *
Wi

0101100
+30 0 -28 0 -27 0 +27 1 *
Fa
0  1e-07 1 0

0101000
+26 0 *
Ve
1e-07
0.7 -0.7 0
0 0

0101101
*
Ed
 1e-07 1 1 0
1  4 0 0 0.3
0

0101000
+24 0 -24 1 *
Ed
 1e-07 1 1 0
1  5 0 0 1.4
0

0101000
+29 0 -24 0 *
Wi

0101100
+28 0 -23 0 -22 0 +22 1 *
Fa
0  1e-07 2 0

0101000
+21 0 *
Ve
1e-07
-0.7 -0.7 0
0 0

0101101
*
Ed
 1e-07 1 1 0
1  6 0 0 0.3
0

0101000
+19 0 -19 1 *
Ed
 1e-07 1 1 0
1  7 0 0 1.4
0

0101000
+24 0 -19 0 *
Wi

0101100
+23 0 -18 0 -17 0 +17 1 *
Fa
0  1e-07 3 0

0101000
+16 0 *
Ed
 1e-07 1 1 0
1  8 0 0 1.4
0

0101000
+19 0 -31 0 *
Wi

0101100
+18 0 -30 0 -14 0 +14 1 *
Fa
0  1e-07 4 0

0101000
+13 0 *
Ve
1e-07
0.5 0 0
0 0

0101101
*
Ed
 1e-07 1 1 0
1  9 0 0 0.3
3  1 2CN 5 0 0 0.3
0

0101000
+11 0 -11 1 *
Ed
 1e-07 1 1 0
1  10 0 0 6.28318530717959
2  3 5 0 0 6.28318530717959
2  4 5 2 0 6.28318530717959
0

0101000
+11 0 -11 0 *
Wi

0101100
+10 0 -10 0 -9 0 +9 1 *
Fa
0  1e-07 5 0

0101000
+8 0 *
Wi

0101100
+27 0 +22 0 +17 0 +14 0 *
Wi

0101100
+9 0 *
Fa
0  1e-07 6 0

0101000
+6 0 -5 0 *
Sh

0101100
+25 0 +20 0 +15 0 +12 0 -7 0 +4 0 -4 1 *
So

0100000
+3 0 *
Co

1100000
+2 0 *

+1 0 