DBRep_DrawableShape

CASCADE Topology V3, (c) Open Cascade
Locations 2
1
              1               0               0               0 
              0               1               0               0 
              0               0               1             0.1 
2  1 -1 0
Curve2ds 12
1 0 0 0 -1 
1 0.90301427544933643 0 0 -1 
1 0.29646134569272409 0 0 -1 
1 0 0 0 -1 
1 0 0 1 0 
1 0 -0.10000000000000001 1 0 
1 0 0 0 -1 
1 0.86640287322426413 0 0 -1 
1 0 0 1 0 
1 0 -0.10000000000000001 1 0 
1 0 0 1 0 
1 0 -0.10000000000000001 1 0 
Curves 26
1 -0.29999999999999999 0.5 0 0 0 1 
1 0.11824999999999999 0.082309999999999994 0 0 0 1 
1 -0.29999999999999999 0.5 0 0.70758031645741037 -0.70663292858600302 0 
1 0.13861000000000001 -0.01763 0 0 0 1 
7 0 0  3 17 15  0.11824999999999999 0.082309999999999994 0  0.10715076518665259 0.078576273037006206 0  0.086444791181303549 0.071067925225611506 0  0.058483158231393072 0.058425160540577892 0  0.035743918465458491 0.045744430404446625 0  0.018354115714007017 0.033444334631956792 0  0.0064016015135578593 0.021798347513680413 0  -0.00047844856520955995 0.010768698349684823 0  -0.0011021451381258947 -0.00033222776435746511 0  0.0054782898935853211 -0.0092257731793782549 0  0.017014268107227268 -0.014794847656627613 0  0.032874737190859281 -0.018450921134740939 0  0.053308349040045444 -0.020368422703204207 0  0.078112339709459175 -0.020746701749928077 0  0.1070451413861761 -0.019784111869782389 0  0.12766706434752664 -0.018380395547986553 -0  0.13861000000000001 -0.01763 0 
 0 4 0.0351888647159865 1 0.065941067889092653 1 0.091986052051115097 1 0.11319625949941696 1 0.12963744254687434 1 0.14184824514129868 1 0.15139927126418201 1 0.16095133910313708 1 0.17305264894959585 1 0.18914266137967184 1 0.20962898120535065 1 0.23449506453184177 1 0.26352810260917703 1 0.29646134569272409 4
1 -0.29999999999999999 -0.5 0 0 0 1 
1 0.13861000000000001 -0.01763 0 -0.6727498978926223 -0.73986997160681289 0 
1 -0.29999999999999999 -0.5 0 0 1 0 
1 1.004 0 0 0 0 1 
7 0 0  3 27 25  1.004 0 0  1.0027455232683433 0.00040007564849801327 0  1.00060288126955 0.0011122467207653245 0  0.99581534494065049 0.002772588416078654 0  0.98787526896600264 0.0055050230993732747 0  0.97471396795524612 0.0099287015608443222 0  0.95646481229588531 0.015944136250276682 0  0.93328616831427247 0.023312503093175726 0  0.9053935291633799 0.03180081181957841 0  0.8730611208940291 0.041144213134359398 0  0.8365995574737195 0.051048245488465566 0  0.79637623638538724 0.061214302025374367 0  0.75279532099468549 0.071320908933845698 0  0.70632307356050483 0.081114389029873904 0  0.6574446346463293 0.090277605201621688 0  0.60668713016927189 0.09854102771230476 0  0.5546078657293414 0.10569007638002602 0  0.50179200680577163 0.11149519723416064 0  0.44880616055498707 0.11577215518106868 0  0.39588963397473786 0.11858084021325985 0  0.34360815528135696 0.11891146392899542 0  0.29269257832805001 0.11635685017642539 0  0.24419869322926169 0.11117323743608763 0  0.1987704124611358 0.10366331520649008 0  0.15699745228898362 0.094165901873823607 0  0.13068746625019695 0.086421715332917509 -0  0.11824999999999999 0.082309999999999994 0 
 0 4 0.0039496961908480248 1 0.0067737535557045401 1 0.015201594323066043 1 0.029140984553632031 1 0.048427853143426486 1 0.072846143419365156 1 0.10210414232564724 1 0.13589224674125475 1 0.1738083607299008 1 0.21544700744181977 1 0.26034923567160811 1 0.30801182057842996 1 0.35791531344215638 1 0.40952546457543643 1 0.46227367023212201 1 0.51560111344853732 1 0.56890483658304269 1 0.62173034651905745 1 0.67454089186750088 1 0.72567601971519469 1 0.7745864460065286 1 0.82077269937265473 1 0.86373443583662923 1 0.90301427544933643 4
1 1.1000000000000001 0.5 0 0 0 1 
1 1.1000000000000001 0.5 0 -1 0 0 
1 1.004 0 0 0.18855598877693594 0.98206244154654043 0 
1 1.5 0.5 0 0 0 1 
1 1.5 0.5 0 -1 0 0 
1 1.5 0 0 0 0 1 
1 1.5 0 0 0 1 0 
1 1.004 0 0 1 0 0 
1 1.1000000000000001 -0.5 0 0 0 1 
1 1.004 0 0 0.18855598877693594 -0.98206244154654043 0 
1 1.5 -0.5 0 0 0 1 
1 1.1000000000000001 -0.5 0 1 0 0 
1 1.5 -0.5 0 0 1 0 
7 0 0  3 25 23  0.13861000000000001 -0.01763 0  0.1507296216895167 -0.016727702994678472 0  0.17600253433688062 -0.014661728134463849 0  0.21533275002367816 -0.011122736456877579 0  0.25742736666270033 -0.0073630473295849394 0  0.30192088666871952 -0.0036920020756611247 0  0.34844412627882165 -0.00045573724958109213 0  0.39698164706264522 0.0019832060450923638 0  0.44710133428047388 0.0037058588389458375 0  0.49827826142071535 0.0054818322091980997 0  0.54962205587627488 0.0069005386769040731 0  0.60055987104441577 0.0079278756570102457 0  0.65054842425920589 0.0085040902549152701 0  0.69903725880058665 0.008606818684007143 0  0.74548570310596718 0.0082664960817864196 0  0.78937076259608541 0.00755913723735154 0  0.83018422562269578 0.00651106648454409 0  0.86745459441994843 0.0052897230290058972 0  0.90073449260926464 0.0039651608562324605 0  0.92962520442033503 0.0025883057798017656 0  0.9537784009894632 0.0014703481285704501 0  0.9766827160478061 -0.00011056631924894996 0  0.99288314865996119 3.555562604157882e-06 0  1.0026667583665205 5.063896938651239e-07 -0  1.004 0 0 
 0 4 0.036457927807268461 1 0.076071961936601956 1 0.11846636958666824 1 0.16324456182351496 1 0.21000418650122171 1 0.25836679189009631 1 0.309031684073935 1 0.3604504598275447 1 0.4119900252118201 1 0.46312020025552592 1 0.51329343814187334 1 0.56196354087445444 1 0.60858478066920896 1 0.65264066449872715 1 0.69363385905587283 1 0.73106407412338203 1 0.76451092748808591 1 0.79355185894697677 1 0.81783303272420593 1 0.83705173715504622 1 0.86240287322426412 1 0.86640287322426413 4
1 -0.29999999999999999 -0.5 0 1 0 0 
1 -0.29999999999999999 0.5 0 0 -1 0 
Polygon3D 0
PolygonOnTriangulations 0
Surfaces 20
1 -0.29999999999999999 0.5 0 0.70663292858600302 0.70758031645741037 -0 0.70758031645741037 -0.70663292858600302 0 0 -0 -1 
6 -0 -0 -1 
7 0 0  3 17 15  0.11824999999999999 0.082309999999999994 0  0.10715076518665259 0.078576273037006206 0  0.086444791181303549 0.071067925225611506 0  0.058483158231393072 0.058425160540577892 0  0.035743918465458491 0.045744430404446625 0  0.018354115714007017 0.033444334631956792 0  0.0064016015135578593 0.021798347513680413 0  -0.00047844856520955995 0.010768698349684823 0  -0.0011021451381258947 -0.00033222776435746511 0  0.0054782898935853211 -0.0092257731793782549 0  0.017014268107227268 -0.014794847656627613 0  0.032874737190859281 -0.018450921134740939 0  0.053308349040045444 -0.020368422703204207 0  0.078112339709459175 -0.020746701749928077 0  0.1070451413861761 -0.019784111869782389 0  0.12766706434752664 -0.018380395547986553 -0  0.13861000000000001 -0.01763 0 
 0 4 0.0351888647159865 1 0.065941067889092653 1 0.091986052051115097 1 0.11319625949941696 1 0.12963744254687434 1 0.14184824514129868 1 0.15139927126418201 1 0.16095133910313708 1 0.17305264894959585 1 0.18914266137967184 1 0.20962898120535065 1 0.23449506453184177 1 0.26352810260917703 1 0.29646134569272409 4
6 -0 -0 -1 
7 0 0  3 27 25  1.004 0 0  1.0027455232683433 0.00040007564849801327 0  1.00060288126955 0.0011122467207653245 0  0.99581534494065049 0.002772588416078654 0  0.98787526896600264 0.0055050230993732747 0  0.97471396795524612 0.0099287015608443222 0  0.95646481229588531 0.015944136250276682 0  0.93328616831427247 0.023312503093175726 0  0.9053935291633799 0.03180081181957841 0  0.8730611208940291 0.041144213134359398 0  0.8365995574737195 0.051048245488465566 0  0.79637623638538724 0.061214302025374367 0  0.75279532099468549 0.071320908933845698 0  0.70632307356050483 0.081114389029873904 0  0.6574446346463293 0.090277605201621688 0  0.60668713016927189 0.09854102771230476 0  0.5546078657293414 0.10569007638002602 0  0.50179200680577163 0.11149519723416064 0  0.44880616055498707 0.11577215518106868 0  0.39588963397473786 0.11858084021325985 0  0.34360815528135696 0.11891146392899542 0  0.29269257832805001 0.11635685017642539 0  0.24419869322926169 0.11117323743608763 0  0.1987704124611358 0.10366331520649008 0  0.15699745228898362 0.094165901873823607 0  0.13068746625019695 0.086421715332917509 -0  0.11824999999999999 0.082309999999999994 0 
 0 4 0.0039496961908480248 1 0.0067737535557045401 1 0.015201594323066043 1 0.029140984553632031 1 0.048427853143426486 1 0.072846143419365156 1 0.10210414232564724 1 0.13589224674125475 1 0.1738083607299008 1 0.21544700744181977 1 0.26034923567160811 1 0.30801182057842996 1 0.35791531344215638 1 0.40952546457543643 1 0.46227367023212201 1 0.51560111344853732 1 0.56890483658304269 1 0.62173034651905745 1 0.67454089186750088 1 0.72567601971519469 1 0.7745864460065286 1 0.82077269937265473 1 0.86373443583662923 1 0.90301427544933643 4
6 -0 -0 -1 
7 0 0  3 25 23  0.13861000000000001 -0.01763 0  0.1507296216895167 -0.016727702994678472 0  0.17600253433688062 -0.014661728134463849 0  0.21533275002367816 -0.011122736456877579 0  0.25742736666270033 -0.0073630473295849394 0  0.30192088666871952 -0.0036920020756611247 0  0.34844412627882165 -0.00045573724958109213 0  0.39698164706264522 0.0019832060450923638 0  0.44710133428047388 0.0037058588389458375 0  0.49827826142071535 0.0054818322091980997 0  0.54962205587627488 0.0069005386769040731 0  0.60055987104441577 0.0079278756570102457 0  0.65054842425920589 0.0085040902549152701 0  0.69903725880058665 0.008606818684007143 0  0.74548570310596718 0.0082664960817864196 0  0.78937076259608541 0.00755913723735154 0  0.83018422562269578 0.00651106648454409 0  0.86745459441994843 0.0052897230290058972 0  0.90073449260926464 0.0039651608562324605 0  0.92962520442033503 0.0025883057798017656 0  0.9537784009894632 0.0014703481285704501 0  0.9766827160478061 -0.00011056631924894996 0  0.99288314865996119 3.555562604157882e-06 0  1.0026667583665205 5.063896938651239e-07 -0  1.004 0 0 
 0 4 0.036457927807268461 1 0.076071961936601956 1 0.11846636958666824 1 0.16324456182351496 1 0.21000418650122171 1 0.25836679189009631 1 0.309031684073935 1 0.3604504598275447 1 0.4119900252118201 1 0.46312020025552592 1 0.51329343814187334 1 0.56196354087445444 1 0.60858478066920896 1 0.65264066449872715 1 0.69363385905587283 1 0.73106407412338203 1 0.76451092748808591 1 0.79355185894697677 1 0.81783303272420593 1 0.83705173715504622 1 0.86240287322426412 1 0.86640287322426413 4
1 0.13861000000000001 -0.01763 0 0.739869971606813 -0.67274989789262241 0 -0.67274989789262241 -0.739869971606813 0 0 -0 -1 
1 -0.29999999999999999 -0.5 0 -1 0 0 0 1 0 0 0 -1 
1 -0.15312683482049033 0.0032657727169964723 0 -0 -0 -1 -1 0 0 0 1 -0 
1 1.1000000000000001 0.5 0 0 -1 0 -1 0 0 -0 -0 -1 
1 1.004 0 0 -0.98206244154654043 0.18855598877693594 0 0.18855598877693594 0.98206244154654043 0 0 0 -1 
1 0.45569299922757167 0.31611458969247974 0 -0 -0 -1 -1 0 0 0 1 -0 
1 1.5 0.5 0 0 -1 0 -1 0 0 -0 -0 -1 
1 1.5 0 0 -1 0 0 0 1 0 0 0 -1 
1 1.004 0 0 0 1 0 1 0 0 0 0 -1 
1 1.2737168510760359 0.23740245164340704 0 -0 -0 -1 -1 0 0 0 1 -0 
1 1.004 0 0 0.98206244154654043 0.18855598877693594 -0 0.18855598877693594 -0.98206244154654043 0 0 -0 -1 
1 1.1000000000000001 -0.5 0 0 1 0 1 0 0 0 0 -1 
1 1.5 -0.5 0 -1 0 0 0 1 0 0 0 -1 
1 1.2737168510760359 -0.23740245164340704 0 0 0 1 1 0 -0 -0 1 0 
1 -0.29999999999999999 -0.5 0 0 1 0 1 0 0 0 0 -1 
1 0.44865831018964891 -0.29012326155105672 0 -0 -0 -1 -1 0 0 0 1 -0 
Triangulations 0

TShapes 144
Ve
1e-07
-0.3 0.5 0
0 0

0101101
*
Ed
 1e-07 1 1 0
1  1 0 0 0.1
0

0101000
+144 0 -144 1 *
Ve
1e-07
0.11825 0.08231 0
0 0

0101101
*
Ed
 1e-07 1 1 0
1  2 0 0 0.1
2  1 2 0 0 0.1
2  2 3 0 0 0.1
0

0101000
+142 0 -142 1 *
Ed
 1e-07 1 1 0
1  3 0 0 0.591098975299399
0

0101000
+144 0 -142 0 *
Wi

0101100
+143 0 -141 0 -140 0 +140 1 *
Fa
0  1e-07 1 0

0101000
+139 0 *
Ve
1e-07
0.13861 -0.01763 0
0 0

0101101
*
Ed
 1e-07 1 1 0
1  4 0 0 0.1
2  3 2 0 0 0.1
2  4 4 0 0 0.1
0

0101000
+137 0 -137 1 *
Ed
 1e-07 1 1 0
1  5 0 0 0.296461345692724
2  5 2 0 0 0.296461345692724
2  6 2 2 0 0.296461345692724
0

0101000
+142 0 -137 0 *
Wi

0101100
+141 0 -136 0 -135 0 +135 1 *
Fa
0  1e-07 2 0

0101000
+134 0 *
Ve
1e-07
-0.3 -0.5 0
0 0

0101101
*
Ed
 1e-07 1 1 0
1  6 0 0 0.1
0

0101000
+132 0 -132 1 *
Ed
 1e-07 1 1 0
1  7 0 0 0.651965910918662
0

0101000
+137 0 -132 0 *
Wi

0101100
+136 0 -131 0 -130 0 +130 1 *
Fa
0  1e-07 5 0

0101000
+129 0 *
Ed
 1e-07 1 1 0
1  8 0 0 1
0

0101000
+132 0 -144 0 *
Wi

0101100
+131 0 -143 0 -127 0 +127 1 *
Fa
0  1e-07 6 0

0101000
+126 0 *
Wi

0101100
+140 0 +135 0 +130 0 +127 0 *
Fa
0  1e-07 7 0

0111000
+124 0 *
Sh

0101100
+138 0 +133 0 +128 0 +125 0 +123 0 -123 1 *
So

0100000
+122 0 *
Ve
1e-07
1.004 0 0
0 0

0101101
*
Ed
 1e-07 1 1 0
1  9 0 0 0.1
2  7 3 0 0 0.1
2  8 4 0 0 0.1
0

0101000
+120 0 -120 1 *
Ed
 1e-07 1 1 0
1  10 0 0 0.903014275449336
2  9 3 0 0 0.903014275449336
2  10 3 2 0 0.903014275449336
0

0101000
+120 0 -142 0 *
Wi

0101100
+119 0 -141 0 -118 0 +118 1 *
Fa
0  1e-07 3 0

0101000
+117 0 *
Ve
1e-07
1.1 0.5 0
0 0

0101101
*
Ed
 1e-07 1 1 0
1  11 0 0 0.1
0

0101000
+115 0 -115 1 *
Ed
 1e-07 1 1 0
1  12 0 0 1.4
0

0101000
+115 0 -144 0 *
Wi

0101100
+114 0 -143 0 -113 0 +113 1 *
Fa
0  1e-07 8 0

0101000
+112 0 *
Ed
 1e-07 1 1 0
1  13 0 0 0.509132595695856
0

0101000
+120 0 -115 0 *
Wi

0101100
+119 0 -114 0 -110 0 +110 1 *
Fa
0  1e-07 9 0

0101000
+109 0 *
Wi

0101100
+118 0 -140 0 -113 0 -110 0 *
Fa
0  1e-07 10 0

0111000
+107 0 *
Sh

0101100
+116 0 -138 0 -111 0 -108 0 +106 0 -106 1 *
So

0100000
+105 0 *
Ve
1e-07
1.5 0.5 0
0 0

0101101
*
Ed
 1e-07 1 1 0
1  14 0 0 0.1
0

0101000
+103 0 -103 1 *
Ed
 1e-07 1 1 0
1  15 0 0 0.4
0

0101000
+103 0 -115 0 *
Wi

0101100
+102 0 -114 0 -101 0 +101 1 *
Fa
0  1e-07 11 0

0101000
+100 0 *
Ve
1e-07
1.5 0 0
0 0

0101101
*
Ed
 1e-07 1 1 0
1  16 0 0 0.1
0

0101000
+98 0 -98 1 *
Ed
 1e-07 1 1 0
1  17 0 0 0.5
0

0101000
+98 0 -103 0 *
Wi

0101100
+97 0 -102 0 -96 0 +96 1 *
Fa
0  1e-07 12 0

0101000
+95 0 *
Ed
 1e-07 1 1 0
1  18 0 0 0.496
0

0101000
+120 0 -98 0 *
Wi

0101100
+119 0 -97 0 -93 0 +93 1 *
Fa
0  1e-07 13 0

0101000
+92 0 *
Wi

0101100
+110 0 -101 0 -96 0 -93 0 *
Fa
0  1e-07 14 0

0111000
+90 0 *
Sh

0101100
+108 0 -99 0 -94 0 -91 0 +89 0 -89 1 *
So

0100000
+88 0 *
Ve
1e-07
1.1 -0.5 0
0 0

0101101
*
Ed
 1e-07 1 1 0
1  19 0 0 0.1
0

0101000
+86 0 -86 1 *
Ed
 1e-07 1 1 0
1  20 0 0 0.509132595695856
0

0101000
+120 0 -86 0 *
Wi

0101100
+119 0 -85 0 -84 0 +84 1 *
Fa
0  1e-07 15 0

0101000
+83 0 *
Ve
1e-07
1.5 -0.5 0
0 0

0101101
*
Ed
 1e-07 1 1 0
1  21 0 0 0.1
0

0101000
+81 0 -81 1 *
Ed
 1e-07 1 1 0
1  22 0 0 0.4
0

0101000
+86 0 -81 0 *
Wi

0101100
+85 0 -80 0 -79 0 +79 1 *
Fa
0  1e-07 16 0

0101000
+78 0 *
Ed
 1e-07 1 1 0
1  23 0 0 0.5
0

0101000
+81 0 -98 0 *
Wi

0101100
+80 0 -97 0 -76 0 +76 1 *
Fa
0  1e-07 17 0

0101000
+75 0 *
Wi

0101100
+84 0 +79 0 +76 0 -93 0 *
Fa
0  1e-07 18 0

0111000
+73 0 *
Sh

0101100
+82 0 +77 0 +74 0 -91 0 +72 0 -72 1 *
So

0100000
-71 0 *
Ed
 1e-07 1 1 0
1  24 0 0 0.866402873224264
2  11 4 0 0 0.866402873224264
2  12 4 2 0 0.866402873224264
0

0101000
+137 0 -120 0 *
Wi

0101100
+136 0 -119 0 -69 0 +69 1 *
Fa
0  1e-07 4 0

0101000
+68 0 *
Ed
 1e-07 1 1 0
1  25 0 0 1.4
0

0101000
+132 0 -86 0 *
Wi

0101100
+131 0 -85 0 -66 0 +66 1 *
Fa
0  1e-07 19 0

0101000
+65 0 *
Wi

0101100
+69 0 +84 0 -66 0 -130 0 *
Fa
0  1e-07 20 0

0111000
+63 0 *
Sh

0101100
+67 0 +82 0 -64 0 -128 0 +62 0 -62 1 *
So

0100000
+61 0 *
Ed
 1e-07 1 1 0
1  26 0 0 1
0

0101000
+144 0 -132 0 *
Ve
1e-07
1.00025 0.00124 0
0 0

0101101
*
Ve
1e-07
0.99758 0.00216 0
0 0

0101101
*
Ve
1e-07
0.98961 0.0049 0
0 0

0101101
*
Ve
1e-07
0.9764 0.00935 0
0 0

0101101
*
Ve
1e-07
0.95808 0.01538 0
0 0

0101101
*
Ve
1e-07
0.93481 0.02278 0
0 0

0101101
*
Ve
1e-07
0.90682 0.0313 0
0 0

0101101
*
Ve
1e-07
0.87436 0.04068 0
0 0

0101101
*
Ve
1e-07
0.83777 0.05062 0
0 0

0101101
*
Ve
1e-07
0.7974 0.06082 0
0 0

0101101
*
Ve
1e-07
0.75366 0.07097 0
0 0

0101101
*
Ve
1e-07
0.70702 0.08079 0
0 0

0101101
*
Ve
1e-07
0.65797 0.08998 0
0 0

0101101
*
Ve
1e-07
0.60703 0.09827 0
0 0

0101101
*
Ve
1e-07
0.55477 0.10543 0
0 0

0101101
*
Ve
1e-07
0.50176 0.11124 0
0 0

0101101
*
Ve
1e-07
0.44863 0.11554 0
0 0

0101101
*
Ve
1e-07
0.39587 0.11817 0
0 0

0101101
*
Ve
1e-07
0.34306 0.11841 0
0 0

0101101
*
Ve
1e-07
0.29199 0.11583 0
0 0

0101101
*
Ve
1e-07
0.24336 0.1106 0
0 0

0101101
*
Ve
1e-07
0.1978 0.10302 0
0 0

0101101
*
Ve
1e-07
0.15592 0.09344 0
0 0

0101101
*
Ve
1e-07
0.08524 0.07012 0
0 0

0101101
*
Ve
1e-07
0.05726 0.05736 0
0 0

0101101
*
Ve
1e-07
0.0346 0.04452 0
0 0

0101101
*
Ve
1e-07
0.01745 0.03204 0
0 0

0101101
*
Ve
1e-07
0.00595 0.02029 0
0 0

0101101
*
Ve
1e-07
0.00014 0.00955 0
0 0

0101101
*
Ve
1e-07
0 0 0
0 0

0101101
*
Ve
1e-07
0.00534 -0.00792 0
0 0

0101101
*
Ve
1e-07
0.0159 -0.01383 0
0 0

0101101
*
Ve
1e-07
0.03149 -0.01781 0
0 0

0101101
*
Ve
1e-07
0.05186 -0.01999 0
0 0

0101101
*
Ve
1e-07
0.07672 -0.02054 0
0 0

0101101
*
Ve
1e-07
0.10574 -0.01967 0
0 0

0101101
*
Ve
1e-07
0.17495 -0.0147 0
0 0

0101101
*
Ve
1e-07
0.21441 -0.01121 0
0 0

0101101
*
Ve
1e-07
0.25664 -0.00748 0
0 0

0101101
*
Ve
1e-07
0.30127 -0.00384 0
0 0

0101101
*
Ve
1e-07
0.34792 -0.00064 0
0 0

0101101
*
Ve
1e-07
0.39622 0.00182 0
0 0

0101101
*
Ve
1e-07
0.44685 0.0037 0
0 0

0101101
*
Ve
1e-07
0.49824 0.00542 0
0 0

0101101
*
Ve
1e-07
0.54976 0.00684 0
0 0

0101101
*
Ve
1e-07
0.60088 0.00786 0
0 0

0101101
*
Ve
1e-07
0.65105 0.00843 0
0 0

0101101
*
Ve
1e-07
0.69972 0.00853 0
0 0

0101101
*
Ve
1e-07
0.74634 0.00819 0
0 0

0101101
*
Ve
1e-07
0.79039 0.00747 0
0 0

0101101
*
Ve
1e-07
0.83137 0.00643 0
0 0

0101101
*
Ve
1e-07
0.86878 0.0052 0
0 0

0101101
*
Ve
1e-07
0.9022 0.00386 0
0 0

0101101
*
Ve
1e-07
0.93121 0.00252 0
0 0

0101101
*
Ve
1e-07
0.95546 0.00129 0
0 0

0101101
*
Ve
1e-07
0.97465 0.00024 0
0 0

0101101
*
Ve
1e-07
1 0 0
0 0

0101101
*
Co

1100000
+121 0 +104 0 +87 0 +70 0 +60 0 +59 0 +58 0 +57 0 +56 0 +55 0 
+54 0 +53 0 +52 0 +51 0 +50 0 +49 0 +48 0 +47 0 +46 0 +45 0 
+44 0 +43 0 +42 0 +41 0 +40 0 +39 0 +38 0 +37 0 +36 0 +35 0 
+34 0 +33 0 +32 0 +31 0 +30 0 +29 0 +28 0 +27 0 +26 0 +25 0 
+24 0 +23 0 +22 0 +21 0 +20 0 +19 0 +18 0 +17 0 +16 0 +15 0 
+14 0 +13 0 +12 0 +11 0 +10 0 +9 0 +8 0 +7 0 +6 0 +5 0 
+4 0 +3 0 +2 0 *

+1 0 